<svg width="18" height="13" viewBox="0 0 18 13" fill="none" xmlns="http://www.w3.org/2000/svg">
<path d="M7.14174 8.90179L12.0033 6.39062L7.14174 3.84933V8.90179ZM9 0.243303C10.125 0.243303 11.2098 0.260045 12.2545 0.293527C13.3058 0.320313 14.0759 0.350447 14.5647 0.383928L15.298 0.424107C15.3047 0.424107 15.3616 0.430804 15.4688 0.444197C15.5759 0.450892 15.6529 0.460938 15.6998 0.474331C15.7467 0.481027 15.8237 0.494419 15.9308 0.514509C16.0446 0.534598 16.1417 0.561384 16.2221 0.594866C16.3025 0.628348 16.3962 0.671875 16.5033 0.725447C16.6105 0.779018 16.7143 0.845982 16.8147 0.92634C16.9152 1 17.0123 1.08705 17.106 1.1875C17.1462 1.22768 17.1964 1.2913 17.2567 1.37835C17.3237 1.45871 17.4208 1.6529 17.548 1.96094C17.6819 2.26897 17.7723 2.60714 17.8192 2.97545C17.8728 3.40402 17.9129 3.86272 17.9397 4.35156C17.9732 4.83371 17.9933 5.21205 18 5.48661V5.88839V7.25446C18.0067 8.22545 17.9464 9.19643 17.8192 10.1674C17.7723 10.5357 17.6886 10.8705 17.5681 11.1719C17.4475 11.4665 17.3404 11.6708 17.2467 11.7846L17.106 11.9554C17.0123 12.0558 16.9152 12.1462 16.8147 12.2266C16.7143 12.3002 16.6105 12.3638 16.5033 12.4174C16.3962 12.4643 16.3025 12.5045 16.2221 12.5379C16.1417 12.5714 16.0446 12.5982 15.9308 12.6183C15.8237 12.6384 15.7433 12.6551 15.6897 12.6685C15.6429 12.6752 15.5658 12.6853 15.4587 12.6987C15.3583 12.7054 15.3047 12.7087 15.298 12.7087C13.6172 12.8359 11.5179 12.8996 9 12.8996C7.61384 12.8862 6.40848 12.8661 5.38393 12.8393C4.36607 12.8058 3.69643 12.779 3.375 12.7589L2.88281 12.7188L2.52121 12.6786C2.28013 12.6451 2.09598 12.6116 1.96875 12.5781C1.84821 12.5446 1.67746 12.4743 1.45647 12.3672C1.24219 12.26 1.05469 12.1228 0.893973 11.9554C0.853795 11.9152 0.800223 11.8549 0.733259 11.7746C0.672991 11.6875 0.575893 11.49 0.441964 11.1819C0.314732 10.8739 0.227679 10.5357 0.180804 10.1674C0.127232 9.73884 0.0837054 9.28348 0.0502232 8.80134C0.0234375 8.3125 0.00669643 7.9308 0 7.65625V7.25446V5.88839C-0.00669643 4.91741 0.0535714 3.94643 0.180804 2.97545C0.227679 2.60714 0.311384 2.27567 0.43192 1.98103C0.552455 1.67969 0.659598 1.4721 0.753348 1.35826L0.893973 1.1875C0.987723 1.08705 1.08482 1 1.18527 0.92634C1.28571 0.845982 1.38951 0.779018 1.49665 0.725447C1.60379 0.671875 1.69754 0.628348 1.7779 0.594866C1.85826 0.561384 1.95201 0.534598 2.05915 0.514509C2.17299 0.494419 2.25335 0.481027 2.30022 0.474331C2.3471 0.460938 2.42411 0.450892 2.53125 0.444197C2.63839 0.430804 2.69531 0.424107 2.70201 0.424107C4.38281 0.303572 6.48214 0.243303 9 0.243303Z" fill="#999999"/>
</svg>
