<svg width="16" height="17" viewBox="0 0 16 17" fill="none" xmlns="http://www.w3.org/2000/svg">
<path d="M10.5689 8.57143C10.5689 9.98772 9.41378 11.1429 7.99749 11.1429C6.58119 11.1429 5.42606 9.98772 5.42606 8.57143C5.42606 7.15513 6.58119 6 7.99749 6C9.41378 6 10.5689 7.15513 10.5689 8.57143ZM11.9551 8.57143C11.9551 6.3817 10.1872 4.61384 7.99749 4.61384C5.80776 4.61384 4.0399 6.3817 4.0399 8.57143C4.0399 10.7612 5.80776 12.529 7.99749 12.529C10.1872 12.529 11.9551 10.7612 11.9551 8.57143ZM13.0399 4.45312C13.0399 3.94085 12.6281 3.52902 12.1158 3.52902C11.6035 3.52902 11.1917 3.94085 11.1917 4.45312C11.1917 4.9654 11.6035 5.37723 12.1158 5.37723C12.6281 5.37723 13.0399 4.9654 13.0399 4.45312ZM7.99749 2.2433C9.12249 2.2433 11.5332 2.1529 12.5477 2.55469C12.8993 2.69531 13.1604 2.86607 13.4316 3.13728C13.7028 3.40848 13.8736 3.66964 14.0142 4.0212C14.416 5.03571 14.3256 7.44643 14.3256 8.57143C14.3256 9.69643 14.416 12.1071 14.0142 13.1217C13.8736 13.4732 13.7028 13.7344 13.4316 14.0056C13.1604 14.2768 12.8993 14.4475 12.5477 14.5882C11.5332 14.99 9.12249 14.8996 7.99749 14.8996C6.87249 14.8996 4.46177 14.99 3.44727 14.5882C3.0957 14.4475 2.83454 14.2768 2.56334 14.0056C2.29213 13.7344 2.12137 13.4732 1.98075 13.1217C1.57896 12.1071 1.66936 9.69643 1.66936 8.57143C1.66936 7.44643 1.57896 5.03571 1.98075 4.0212C2.12137 3.66964 2.29213 3.40848 2.56334 3.13728C2.83454 2.86607 3.0957 2.69531 3.44727 2.55469C4.46177 2.1529 6.87249 2.2433 7.99749 2.2433ZM15.7118 8.57143C15.7118 7.5067 15.7218 6.45201 15.6616 5.38728C15.6013 4.15179 15.32 3.05692 14.416 2.1529C13.512 1.24888 12.4171 0.967633 11.1816 0.907366C10.1169 0.847098 9.06222 0.857142 7.99749 0.857142C6.93276 0.857142 5.87807 0.847098 4.81334 0.907366C3.57785 0.967633 2.48298 1.24888 1.57896 2.1529C0.674944 3.05692 0.393694 4.15179 0.333426 5.38728C0.273158 6.45201 0.283203 7.5067 0.283203 8.57143C0.283203 9.63616 0.273158 10.6908 0.333426 11.7556C0.393694 12.9911 0.674944 14.0859 1.57896 14.99C2.48298 15.894 3.57785 16.1752 4.81334 16.2355C5.87807 16.2958 6.93276 16.2857 7.99749 16.2857C9.06222 16.2857 10.1169 16.2958 11.1816 16.2355C12.4171 16.1752 13.512 15.894 14.416 14.99C15.32 14.0859 15.6013 12.9911 15.6616 11.7556C15.7218 10.6908 15.7118 9.63616 15.7118 8.57143Z" fill="#999999"/>
</svg>
