<svg width="16" height="17" viewBox="0 0 16 17" fill="none" xmlns="http://www.w3.org/2000/svg">
<path d="M12.8189 0.857142H3.17606C1.57896 0.857142 0.283203 2.1529 0.283203 3.75V13.3929C0.283203 14.99 1.57896 16.2857 3.17606 16.2857H8.51981V10.3092H6.51088V7.97879H8.51981V6.26116C8.51981 4.27232 9.74526 3.1875 11.5232 3.1875C12.3669 3.1875 13.1002 3.24777 13.3111 3.2779V5.35714L12.0857 5.36719C11.1113 5.36719 10.9305 5.8192 10.9305 6.49219V7.97879H13.2307L12.9294 10.3092H10.9305V16.2857H12.8189C14.416 16.2857 15.7118 14.99 15.7118 13.3929V3.75C15.7118 2.1529 14.416 0.857142 12.8189 0.857142Z" fill="#999999"/>
</svg>
